{"asset":{"copyright":"","generator":"Source 2 Viewer 15.0.0.0 - https://valveresourceformat.github.io","version":"2.0"},"accessors":[{"bufferView":0,"componentType":5126,"count":7675,"max":[2.404573440551758,24.245357513427734,46.0849494934082],"min":[-3.3161978721618652,-24.245365142822266,36.199710845947266],"type":"VEC3"},{"bufferView":1,"componentType":5126,"count":7675,"max":[0.9933775067329407,0.9931027889251709],"min":[-0.9945371747016907,0.004455702379345894],"type":"VEC2"},{"bufferView":2,"componentType":5126,"count":7675,"max":[0.9998700022697449,0.9998700022697449,0.9954080581665039],"min":[-0.9998700022697449,-0.9998700022697449,-0.9974828362464905],"type":"VEC3"},{"bufferView":3,"componentType":5126,"count":7675,"type":"VEC4"},{"bufferView":4,"componentType":5123,"count":7675,"type":"VEC4"},{"bufferView":5,"componentType":5126,"count":7675,"type":"VEC4"},{"bufferView":6,"componentType":5125,"count":18579,"type":"SCALAR"},{"bufferView":7,"componentType":5125,"count":18579,"type":"SCALAR"},{"name":"Bind Matrices","bufferView":8,"componentType":5126,"count":50,"type":"MAT4"}],"bufferViews":[{"buffer":0,"byteLength":92100,"byteOffset":245600,"target":34962},{"buffer":0,"byteLength":61400,"byteOffset":578432,"target":34962},{"buffer":0,"byteLength":92100,"byteOffset":337700,"target":34962},{"buffer":0,"byteLength":122800,"target":34962},{"buffer":0,"byteLength":61400,"byteOffset":639832,"byteStride":8,"target":34962},{"buffer":0,"byteLength":122800,"byteOffset":122800,"target":34962},{"buffer":0,"byteLength":74316,"byteOffset":429800,"target":34963},{"buffer":0,"byteLength":74316,"byteOffset":504116,"target":34963},{"buffer":0,"byteLength":3200,"byteOffset":701232}],"buffers":[{"byteLength":704432,"uri":"w_glove_motorcycle.bin"}],"images":[{"name":"glove_motorcycle_left_vmat_g_tcolor_75546e01.vtex","uri":"glove_motorcycle_left_vmat_g_tcolor_75546e01.png"},{"name":"glove_motorcycle_normal_tga_211465c2.vtex","uri":"glove_motorcycle_normal_tga_211465c2.png"},{"name":"glove_motorcycle_left_vmat_g_tmetalness_f0ed70e0_orm_4080740112.png","uri":"glove_motorcycle_left_vmat_g_tmetalness_f0ed70e0_orm_4080740112.png"},{"name":"glove_motorcycle_right_vmat_g_tcolor_75546e01.vtex","uri":"glove_motorcycle_right_vmat_g_tcolor_75546e01.png"},{"name":"glove_motorcycle_normal_tga_211465c2_orm_1339756018.png","uri":"glove_motorcycle_normal_tga_211465c2_orm_1339756018.png"}],"materials":[{"extras":{"vmat":{"Name":"characters/models/shared/arms/glove_motorcycle/materials/glove_motorcycle_left.vmat","ShaderName":"csgo_character.vfx","IntParams":{"F_CLOTH_SHADING":1,"g_bFogEnabled":1,"g_nScaleTexCoordUByModelScaleAxis":0,"g_nScaleTexCoordVByModelScaleAxis":0,"g_nTextureAddressModeU":0,"g_nTextureAddressModeV":0},"FloatParams":{"g_flAmbientOcclusionMasking":0.4,"g_flModelTintAmount":1,"g_flSheenScale":0.667,"g_flTexCoordRotation":0},"VectorParams":{"g_flSheenTintColor":[1,1,1,0],"g_vColorTint":[1,1,1,0],"g_vTexCoordCenter":[0.5,0.5,0,0],"g_vTexCoordOffset":[0,0,0,0],"g_vTexCoordScale":[1,1,0,0],"g_vTexCoordScrollSpeed":[0,0,0,0],"TextureCloth":[0,0,0,0],"TextureColor":[0.156863,0.156863,0.156863,1]},"TextureParams":{"g_tAmbientOcclusion":"materials/default/default_ao_tga_559f1ac6.vtex","g_tColor":"characters/models/shared/arms/glove_motorcycle/materials/glove_motorcycle_left_vmat_g_tcolor_75546e01.vtex","g_tMetalness":"characters/models/shared/arms/glove_motorcycle/materials/glove_motorcycle_left_vmat_g_tmetalness_f0ed70e0.vtex","g_tNormal":"characters/models/shared/arms/glove_motorcycle/materials/glove_motorcycle_normal_tga_211465c2.vtex"}}},"name":"glove_motorcycle_left","normalTexture":{"index":1},"occlusionTexture":{"index":2},"pbrMetallicRoughness":{"baseColorTexture":{"index":0},"metallicRoughnessTexture":{"index":2}}},{"extras":{"vmat":{"Name":"characters/models/shared/arms/glove_motorcycle/materials/glove_motorcycle_right.vmat","ShaderName":"csgo_character.vfx","IntParams":{"F_CLOTH_SHADING":1,"g_bFogEnabled":1,"g_nScaleTexCoordUByModelScaleAxis":0,"g_nScaleTexCoordVByModelScaleAxis":0,"g_nTextureAddressModeU":0,"g_nTextureAddressModeV":0},"FloatParams":{"g_flAmbientOcclusionMasking":0.4,"g_flModelTintAmount":1,"g_flSheenScale":0.667,"g_flTexCoordRotation":0},"VectorParams":{"g_flSheenTintColor":[1,1,1,0],"g_vColorTint":[1,1,1,0],"g_vTexCoordCenter":[0.5,0.5,0,0],"g_vTexCoordOffset":[0,0,0,0],"g_vTexCoordScale":[1,1,0,0],"g_vTexCoordScrollSpeed":[0,0,0,0],"TextureCloth":[0,0,0,0],"TextureColor":[0.156863,0.156863,0.156863,1]},"TextureParams":{"g_tAmbientOcclusion":"materials/default/default_ao_tga_559f1ac6.vtex","g_tColor":"characters/models/shared/arms/glove_motorcycle/materials/glove_motorcycle_right_vmat_g_tcolor_75546e01.vtex","g_tMetalness":"characters/models/shared/arms/glove_motorcycle/materials/glove_motorcycle_right_vmat_g_tmetalness_f0ed70e0.vtex","g_tNormal":"characters/models/shared/arms/glove_motorcycle/materials/glove_motorcycle_normal_tga_211465c2.vtex"}}},"name":"glove_motorcycle_right","normalTexture":{"index":1},"occlusionTexture":{"index":4},"pbrMetallicRoughness":{"baseColorTexture":{"index":3},"metallicRoughnessTexture":{"index":4}}}],"meshes":[{"extras":{},"name":"characters/models/shared/arms/glove_motorcycle/w_glove_motorcycle.vmdl_c.arms","primitives":[{"attributes":{"POSITION":0,"TEXCOORD_0":1,"NORMAL":2,"TANGENT":3,"JOINTS_0":4,"WEIGHTS_0":5},"indices":6,"material":0},{"attributes":{"POSITION":0,"TEXCOORD_0":1,"NORMAL":2,"TANGENT":3,"JOINTS_0":4,"WEIGHTS_0":5},"indices":7,"material":1}]}],"nodes":[{"name":"characters/models/shared/arms/glove_motorcycle/w_glove_motorcycle.vmdl_c","children":[1,26],"matrix":[3.027916E-09,0,0.025399996,0,0.025399996,3.027916E-09,0,0,0,0.025399996,3.027916E-09,0,0,0,0,1]},{"name":"arm_lower_L","children":[2,25],"rotation":[0.7409696,0.5148935,-0.28897747,0.31990746],"translation":[-4.6771283,14.52317,52.88493]},{"name":"hand_L","children":[3,8,13,17,21],"rotation":[0.6846381,-0.00252711,0.03596657,0.7279909],"translation":[11.486935,4.529953E-06,-0.00011062622]},{"name":"finger_pinky_meta_L","children":[4],"rotation":[0.00078776665,-0.17121984,0.042475734,0.9843165],"translation":[0.56277275,0.12477875,0.989228]},{"name":"finger_pinky_0_L","children":[5],"rotation":[-0.030611472,-0.06402178,0.09448655,0.99299365],"translation":[2.7048168,-0.0001296997,1.2874603E-05]},{"name":"finger_pinky_1_L","children":[6],"rotation":[-0.0001319708,0.007271374,0.1745479,0.9846218],"translation":[1.5110359,-0.0001373291,1.859665E-05]},{"name":"finger_pinky_2_L","children":[7],"rotation":[0.0009848846,-0.011560989,0.023174237,0.9996641],"translation":[0.87247086,-0.00012207031,2.4318695E-05]},{"name":"finger_pinky_L_END","rotation":[2.4214254E-08,-1.1175802E-08,4.4121144E-08,1],"translation":[0.61911774,-0.00015068054,3.9577484E-05]},{"name":"finger_ring_meta_L","children":[9],"rotation":[0.03216498,-0.10770862,-0.0062159933,0.9936426],"translation":[0.7116661,0.0574646,0.41044712]},{"name":"finger_ring_0_L","children":[10],"rotation":[0.0023175653,-0.054846045,0.20174049,0.9778995],"translation":[2.9876404,-0.00017929077,1.0728836E-05]},{"name":"finger_ring_1_L","children":[11],"rotation":[5.6644993E-08,0.00028677232,0.16327891,0.9865799],"translation":[1.9107513,-0.00016784668,3.4332275E-05]},{"name":"finger_ring_2_L","children":[12],"rotation":[-0.00021905536,0.004532069,0.06695851,0.99774545],"translation":[1.2804489,-0.00012588501,4.196167E-05]},{"name":"finger_ring_L_END","rotation":[4.097787E-08,1.1175784E-08,-1.3736905E-08,1],"translation":[1.0416222,-0.00012588501,5.5789948E-05]},{"name":"finger_middle_meta_L","children":[14],"rotation":[0.04973654,-0.051118217,-0.03644851,0.9967872],"translation":[0.80778694,0.015327454,-0.22452402]},{"name":"finger_middle_0_L","children":[15],"rotation":[0.026046727,-0.020899722,0.21492565,0.9760593],"translation":[3.2650414,-0.0001373291,2.503395E-06]},{"name":"finger_middle_1_L","children":[16],"rotation":[-0.00024637827,0.013757607,0.17575485,0.9843378],"translation":[2.0756207,-0.000118255615,1.5258789E-05]},{"name":"finger_middle_2_L","rotation":[-4.693501E-05,0.0031072865,0.1074969,0.9942006],"translation":[1.4132347,-8.9645386E-05,1.4543533E-05]},{"name":"finger_index_meta_L","children":[18],"rotation":[0.10627761,0.023006601,-0.035332914,0.9934422],"translation":[0.8027382,0.21481323,-0.8736758]},{"name":"finger_index_0_L","children":[19],"rotation":[0.05266146,0.00091777206,0.24428491,0.9682721],"translation":[3.2903366,-0.000102996826,1.4305115E-06]},{"name":"finger_index_1_L","children":[20],"rotation":[6.512751E-05,0.0055921837,0.16455619,0.98635185],"translation":[1.9955902,-9.536743E-05,1.5258789E-05]},{"name":"finger_index_2_L","rotation":[0.0018371412,-0.01829978,0.006976961,0.9998065],"translation":[1.2688713,-7.05719E-05,2.0503998E-05]},{"name":"finger_thumb_0_L","children":[22],"rotation":[0.6119322,0.35371307,0.038251583,0.70637304],"translation":[1.4230213,0.74147034,-1.1764269]},{"name":"finger_thumb_1_L","children":[23],"rotation":[0.0017045874,-0.049532916,0.21570642,0.97519964],"translation":[1.6987457,-9.346008E-05,7.247925E-05]},{"name":"finger_thumb_2_L","children":[24],"rotation":[0.000117872325,0.0031834547,0.14980893,0.98870987],"translation":[1.5661583,-4.9591064E-05,0.00012588501]},{"name":"finger_thumb_L_END","rotation":[-7.078016E-08,-2.724106E-08,3.9115324E-08,1],"translation":[1.2946205,8.583069E-06,0.00014686584]},{"name":"arm_lower_L_TWIST1","rotation":[-3.539016E-08,-1.0658141E-14,3.7252804E-08,1],"translation":[7.657913,3.33786E-06,-0.0001373291]},{"name":"arm_lower_R","children":[27,50],"rotation":[0.288977,-0.31990764,0.74096966,0.5148935],"translation":[-4.6771197,-14.523134,52.884922]},{"name":"hand_R","children":[28,33,38,42,46],"rotation":[0.6846381,-0.0025271715,0.03596659,0.7279909],"translation":[-11.486954,4.887581E-06,0.00015640259]},{"name":"finger_pinky_meta_R","children":[29],"rotation":[0.0007878582,-0.17121975,0.042475812,0.9843165],"translation":[-0.5627365,-0.12467575,-0.9892273]},{"name":"finger_pinky_0_R","children":[30],"rotation":[-0.030611377,-0.06402178,0.09448674,0.99299365],"translation":[-2.7047806,0.00024032593,-2.861023E-05]},{"name":"finger_pinky_1_R","children":[31],"rotation":[-0.00013199024,0.007271405,0.17454797,0.9846218],"translation":[-1.5108852,0.00024414062,-5.6266785E-05]},{"name":"finger_pinky_2_R","children":[32],"rotation":[0.0009850136,-0.011560947,0.023174308,0.9996641],"translation":[-0.872303,0.0002040863,-4.529953E-05]},{"name":"finger_pinky_R_END","rotation":[6.5191855E-08,4.470298E-08,1.4924277E-07,1],"translation":[-0.6188469,0.00024986267,-9.536743E-05]},{"name":"finger_ring_meta_R","children":[34],"rotation":[0.03216524,-0.10770857,-0.0062158555,0.9936426],"translation":[-0.7115669,-0.05739975,-0.41042328]},{"name":"finger_ring_0_R","children":[35],"rotation":[0.0023174894,-0.05484598,0.2017407,0.97789943],"translation":[-2.9876518,0.00035858154,-3.504753E-05]},{"name":"finger_ring_1_R","children":[36],"rotation":[5.6641305E-08,0.0002867965,0.16327897,0.9865799],"translation":[-1.910614,0.00025558472,-5.8174133E-05]},{"name":"finger_ring_2_R","children":[37],"rotation":[-0.00021897932,0.004532079,0.06695848,0.99774545],"translation":[-1.2801704,0.00033187866,-9.4890594E-05]},{"name":"finger_ring_R_END","rotation":[7.822992E-08,3.3527108E-08,-3.1431668E-08,1],"translation":[-1.0412788,0.00022602081,-0.00011205673]},{"name":"finger_middle_meta_R","children":[39],"rotation":[0.049736697,-0.0511182,-0.03644847,0.9967872],"translation":[-0.8076668,-0.015213013,0.22455692]},{"name":"finger_middle_0_R","children":[40],"rotation":[0.026046777,-0.020899665,0.21492584,0.97605926],"translation":[-3.2649937,0.00030136108,-9.536743E-06]},{"name":"finger_middle_1_R","children":[41],"rotation":[-0.00024630505,0.013757641,0.17575487,0.9843378],"translation":[-2.0754929,0.00033569336,-5.4359436E-05]},{"name":"finger_middle_2_R","rotation":[-4.7129546E-05,0.0031073012,0.10749695,0.9942005],"translation":[-1.4129791,0.00022125244,-4.0769577E-05]},{"name":"finger_index_meta_R","children":[43],"rotation":[0.1062777,0.023006586,-0.035332832,0.9934422],"translation":[-0.8026409,-0.21471405,0.8736987]},{"name":"finger_index_0_R","children":[44],"rotation":[0.052661534,0.00091777544,0.244285,0.9682721],"translation":[-3.290266,0.0002822876,-1.1444092E-05]},{"name":"finger_index_1_R","children":[45],"rotation":[6.493109E-05,0.005592144,0.16455622,0.98635185],"translation":[-1.995472,0.0002975464,-8.773804E-05]},{"name":"finger_index_2_R","rotation":[0.0019652504,-0.018286455,-3.192528E-05,0.99983084],"translation":[-1.2686272,7.8201294E-05,9.536743E-07]},{"name":"finger_thumb_0_R","children":[47],"rotation":[0.6119322,0.3537131,0.03825163,0.706373],"translation":[-1.4229603,-0.74141693,1.1764431]},{"name":"finger_thumb_1_R","children":[48],"rotation":[0.0017045449,-0.04953277,0.21570647,0.97519964],"translation":[-1.6986008,0.00018310547,-0.00022125244]},{"name":"finger_thumb_2_R","children":[49],"rotation":[0.000117875665,0.003183653,0.149809,0.9887098],"translation":[-1.5660248,9.727478E-05,-0.00017929077]},{"name":"finger_thumb_R_END","rotation":[-5.587882E-08,9.2083624E-08,5.5878807E-08,1],"translation":[-1.294548,-3.5762787E-05,-0.00033187866]},{"name":"arm_lower_R_TWIST1","rotation":[-5.774183E-08,-9.965122E-08,3.725279E-08,1],"translation":[-7.657936,0,0.00017166138]},{"name":"characters/models/shared/arms/glove_motorcycle/w_glove_motorcycle.vmdl_c.arms","mesh":0,"skin":0}],"samplers":[{"magFilter":9729,"minFilter":9987}],"scenes":[{"name":"w_glove_motorcycle.vmdl_c","nodes":[0,51]}],"skins":[{"inverseBindMatrices":8,"joints":[1,26,2,27,3,8,28,33,13,4,17,21,9,38,29,42,46,34,14,5,18,22,10,39,30,43,47,35,15,6,19,23,11,40,31,44,48,36,16,7,20,24,12,25,41,32,45,49,37,50]}],"textures":[{"name":"glove_motorcycle_left_vmat_g_tcolor_75546e01.vtex","sampler":0,"source":0},{"name":"glove_motorcycle_normal_tga_211465c2.vtex","sampler":0,"source":1},{"name":"glove_motorcycle_left_vmat_g_tmetalness_f0ed70e0_orm_4080740112.png","sampler":0,"source":2},{"name":"glove_motorcycle_right_vmat_g_tcolor_75546e01.vtex","sampler":0,"source":3},{"name":"glove_motorcycle_normal_tga_211465c2_orm_1339756018.png","sampler":0,"source":4}]}