{"asset":{"copyright":"","generator":"Source 2 Viewer 15.0.0.0 - https://valveresourceformat.github.io","version":"2.0"},"accessors":[{"bufferView":0,"componentType":5126,"count":7360,"max":[2.4431939125061035,24.309410095214844,60.23875045776367],"min":[-6.914229393005371,-24.3094482421875,36.19935989379883],"type":"VEC3"},{"bufferView":1,"componentType":5126,"count":7360,"max":[0.9929196834564209,0.9936521649360657],"min":[0.010467848740518093,0.008453627116978168],"type":"VEC2"},{"bufferView":2,"componentType":5126,"count":7360,"max":[0.9999637603759766,0.9998154640197754,0.9895756840705872],"min":[-0.9999247193336487,-0.9998154640197754,-0.9994786977767944],"type":"VEC3"},{"bufferView":3,"componentType":5126,"count":7360,"type":"VEC4"},{"bufferView":4,"componentType":5123,"count":7360,"type":"VEC4"},{"bufferView":5,"componentType":5126,"count":7360,"type":"VEC4"},{"bufferView":6,"componentType":5125,"count":37524,"type":"SCALAR"},{"name":"Bind Matrices","bufferView":7,"componentType":5126,"count":52,"type":"MAT4"}],"bufferViews":[{"buffer":0,"byteLength":88320,"byteOffset":385616,"target":34962},{"buffer":0,"byteLength":58880,"byteOffset":562256,"target":34962},{"buffer":0,"byteLength":88320,"byteOffset":473936,"target":34962},{"buffer":0,"byteLength":117760,"byteOffset":150096,"target":34962},{"buffer":0,"byteLength":58880,"byteOffset":621136,"byteStride":8,"target":34962},{"buffer":0,"byteLength":117760,"byteOffset":267856,"target":34962},{"buffer":0,"byteLength":150096,"target":34963},{"buffer":0,"byteLength":3328,"byteOffset":680016}],"buffers":[{"byteLength":683344,"uri":"glove_cloth_collision.bin"}],"materials":[{"extras":{"vmat":{"Name":"materials/dev/black_simple.vmat","ShaderName":"csgo_black_unlit.vfx","IntParams":{"g_bFogEnabled":1},"FloatParams":{},"VectorParams":{},"TextureParams":{}}},"name":"black_simple","pbrMetallicRoughness":{"metallicFactor":0}}],"meshes":[{"extras":{},"name":"characters/models/shared/arms/glove_cloth_collision/glove_cloth_collision.vmdl_c.helper_geo","primitives":[{"attributes":{"POSITION":0,"TEXCOORD_0":1,"NORMAL":2,"TANGENT":3,"JOINTS_0":4,"WEIGHTS_0":5},"indices":6,"material":0}]}],"nodes":[{"name":"characters/models/shared/arms/glove_cloth_collision/glove_cloth_collision.vmdl_c","children":[1,27],"matrix":[3.027916E-09,0,0.025399996,0,0.025399996,3.027916E-09,0,0,0,0.025399996,3.027916E-09,0,0,0,0,1]},{"name":"arm_upper_L","children":[2,25,26],"rotation":[0.6284772,0.6448935,-0.36515322,0.23620313],"translation":[-3.3386903,7.1799335,61.655197]},{"name":"arm_lower_L","children":[3,23,24],"rotation":[-6.0832E-08,-3.0415997E-08,0.19986218,0.979824],"translation":[11.786945,1.9073486E-06,7.6293945E-06]},{"name":"hand_L","children":[4,8,12,16,20],"rotation":[0.6942864,-0.051538996,0.009466686,0.71778864],"translation":[11.082537,3.4570694E-06,1.9073486E-05]},{"name":"finger_middle_meta_L","children":[5],"rotation":[0.02528498,0.002945909,-0.037282705,0.99898046],"translation":[1.2973156,-0.13593292,-0.26939142]},{"name":"finger_middle_0_L","children":[6],"rotation":[-0.0056133284,-0.0027720693,0.19174625,0.98142457],"translation":[2.8064594,1.5258789E-05,-2.1457672E-06]},{"name":"finger_middle_1_L","children":[7],"rotation":[0.0015561269,0.0021749143,0.18064182,0.9835453],"translation":[1.9180126,1.9073486E-05,-2.1457672E-06]},{"name":"finger_middle_2_L","rotation":[0.005684293,-0.0031873807,0.09561229,0.9953973],"translation":[1.518158,1.1444092E-05,-2.861023E-06]},{"name":"finger_pinky_meta_L","children":[9],"rotation":[-0.14666504,-0.15807556,-0.0004515266,0.9764739],"translation":[1.2812767,0.26166916,0.99838126]},{"name":"finger_pinky_0_L","children":[10],"rotation":[-0.044727203,-0.013635601,0.1274112,0.9907472],"translation":[2.1701984,1.9073486E-05,-2.7418137E-06]},{"name":"finger_pinky_1_L","children":[11],"rotation":[-0.00076218595,0.0045341905,0.15405671,0.98805135],"translation":[1.6741924,2.670288E-05,0]},{"name":"finger_pinky_2_L","rotation":[0.022723123,-0.00872044,0.03743378,0.9990027],"translation":[0.8263893,1.5258789E-05,9.536743E-07]},{"name":"finger_index_meta_L","children":[13],"rotation":[0.13026187,0.09413663,-0.050009962,0.9857328],"translation":[1.1936035,-0.082019806,-0.9667996]},{"name":"finger_index_0_L","children":[14],"rotation":[-0.060115963,-0.02889794,0.21363826,0.9746331],"translation":[2.8664093,0,3.8146973E-06]},{"name":"finger_index_1_L","children":[15],"rotation":[0.00015696508,0.00034050064,0.18394734,0.982936],"translation":[1.9072418,-1.9073486E-06,-4.7683716E-07]},{"name":"finger_index_2_L","rotation":[0.001265753,-0.0005870153,0.055864256,0.99843746],"translation":[1.3015556,5.722046E-06,-2.3841858E-06]},{"name":"finger_ring_meta_L","children":[17],"rotation":[-0.00030463393,-0.07205377,-0.013036943,0.9973155],"translation":[1.2812881,-0.028282166,0.35085535]},{"name":"finger_ring_0_L","children":[18],"rotation":[-0.043682847,-0.019677317,0.1820841,0.9821151],"translation":[2.543663,1.5258789E-05,-2.3841858E-06]},{"name":"finger_ring_1_L","children":[19],"rotation":[-8.786901E-05,-0.0001693091,0.2042323,0.9789224],"translation":[1.8806496,7.6293945E-06,-9.536743E-07]},{"name":"finger_ring_2_L","rotation":[-0.0007441819,0.00031395128,0.020441523,0.9997907],"translation":[1.3225327,1.335144E-05,-2.6226044E-06]},{"name":"finger_thumb_0_L","children":[21],"rotation":[0.6287046,0.3559662,-0.0620609,0.68859786],"translation":[1.2570896,0.6252365,-1.2968718]},{"name":"finger_thumb_1_L","children":[22],"rotation":[-0.0022366988,-0.003727773,0.21286608,0.97707176],"translation":[1.8559132,-5.722046E-06,1.1444092E-05]},{"name":"finger_thumb_2_L","rotation":[-0.005869212,0.0048855282,0.14214735,0.98981607],"translation":[1.4771881,-2.861023E-06,-1.9073486E-06]},{"name":"arm_lower_L_TWIST","rotation":[0.012197822,-2.049062E-08,-5.9609086E-08,0.9999256],"translation":[3.6941795,-9.536743E-07,0]},{"name":"arm_lower_L_TWIST1","rotation":[0.012197822,-2.049062E-08,-5.9609086E-08,0.9999256],"translation":[7.388361,2.1457672E-06,7.6293945E-06]},{"name":"arm_upper_L_TWIST","rotation":[-0.036443695,9.319418E-09,-2.221922E-16,0.9993357],"translation":[3.9289818,6.67572E-06,1.1444092E-05]},{"name":"arm_upper_L_TWIST1","rotation":[-0.0182248,1.1643474E-09,1.4903636E-08,0.99983394],"translation":[7.857952,1.9073486E-06,3.8146973E-06]},{"name":"arm_upper_R","children":[28,51,52],"rotation":[0.36515093,-0.23620535,0.6284763,0.64489484],"translation":[-3.3386784,-7.1799316,61.655106]},{"name":"arm_lower_R","children":[29,49,50],"rotation":[-1.2166399E-07,-7.5327115E-08,0.19986215,0.979824],"translation":[-11.786953,5.722046E-06,-1.9073486E-05]},{"name":"hand_R","children":[30,34,38,42,46],"rotation":[0.6942861,-0.05153912,0.009466678,0.717789],"translation":[-11.0825,-4.2915344E-06,3.8146973E-05]},{"name":"finger_middle_meta_R","children":[31],"rotation":[0.025285114,0.0029459053,-0.037282523,0.9989805],"translation":[-1.297329,0.13598633,0.26938832]},{"name":"finger_middle_0_R","children":[32],"rotation":[-0.0056133466,-0.002772115,0.19174638,0.98142457],"translation":[-2.806509,-6.866455E-05,3.5762787E-06]},{"name":"finger_middle_1_R","children":[33],"rotation":[0.0015559337,0.0021748547,0.18064183,0.9835453],"translation":[-1.9179859,-2.2888184E-05,9.775162E-06]},{"name":"finger_middle_2_R","rotation":[0.0056845187,-0.0031874164,0.09561224,0.9953973],"translation":[-1.5181274,0,4.053116E-06]},{"name":"finger_pinky_meta_R","children":[35],"rotation":[-0.14666475,-0.1580757,-0.00045138164,0.9764739],"translation":[-1.2812653,-0.26171112,-0.99836123]},{"name":"finger_pinky_0_R","children":[36],"rotation":[-0.044727284,-0.013635649,0.12741129,0.99074715],"translation":[-2.170168,7.6293945E-06,7.1525574E-07]},{"name":"finger_pinky_1_R","children":[37],"rotation":[-0.0007621106,0.0045341263,0.15405689,0.9880513],"translation":[-1.6742573,6.1035156E-05,2.193451E-05]},{"name":"finger_pinky_2_R","rotation":[0.022723172,-0.008720513,0.037433926,0.9990027],"translation":[-0.82635117,-8.773804E-05,-1.9073486E-05]},{"name":"finger_index_meta_R","children":[39],"rotation":[0.13026184,0.09413665,-0.050009802,0.9857328],"translation":[-1.1935902,0.08199692,0.9668184]},{"name":"finger_index_0_R","children":[40],"rotation":[-0.06011574,-0.028897993,0.21363841,0.9746331],"translation":[-2.8664532,4.196167E-05,-3.9100647E-05]},{"name":"finger_index_1_R","children":[41],"rotation":[0.00015662401,0.00034047422,0.18394764,0.98293597],"translation":[-1.9072876,-3.2424927E-05,1.1444092E-05]},{"name":"finger_index_2_R","rotation":[0.001266074,-0.0005871642,0.05586414,0.99843746],"translation":[-1.3015327,1.7166138E-05,-1.1920929E-05]},{"name":"finger_ring_meta_R","children":[43],"rotation":[-0.00030470497,-0.07205382,-0.013036762,0.9973155],"translation":[-1.2813263,0.028282166,-0.35085166]},{"name":"finger_ring_0_R","children":[44],"rotation":[-0.043682862,-0.019677425,0.18208419,0.98211503],"translation":[-2.5436306,4.196167E-05,-1.4305115E-06]},{"name":"finger_ring_1_R","children":[45],"rotation":[-8.776435E-05,-0.00016939042,0.2042323,0.9789224],"translation":[-1.8806648,-6.484985E-05,1.9073486E-06]},{"name":"finger_ring_2_R","rotation":[-0.0007441855,0.0003139433,0.020441515,0.9997907],"translation":[-1.3225517,-1.5258789E-05,-3.33786E-06]},{"name":"finger_thumb_0_R","children":[47],"rotation":[0.6287048,0.35596618,-0.062060643,0.6885977],"translation":[-1.2571125,-0.62522507,1.2968726]},{"name":"finger_thumb_1_R","children":[48],"rotation":[-0.0022368024,-0.0037277597,0.21286613,0.9770717],"translation":[-1.8559513,-2.670288E-05,7.6293945E-06]},{"name":"finger_thumb_2_R","rotation":[-0.005869273,0.004885577,0.14214736,0.98981607],"translation":[-1.47715,-2.861023E-06,-4.196167E-05]},{"name":"arm_lower_R_TWIST","rotation":[0.0060990322,-5.7743076E-08,-4.470432E-08,0.9999814],"translation":[-3.694168,-2.6226044E-06,1.5258789E-05]},{"name":"arm_lower_R_TWIST1","rotation":[0.012197865,-1.08972856E-07,-5.2157947E-08,0.9999256],"translation":[-7.388338,-1.9073486E-06,2.670288E-05]},{"name":"arm_upper_R_TWIST","rotation":[-0.036443725,-1.5912903E-07,2.4230483E-08,0.9993357],"translation":[-3.9289818,-9.536743E-07,-7.6293945E-06]},{"name":"arm_upper_R_TWIST1","rotation":[-0.018224819,-1.5043358E-07,4.843682E-08,0.99983394],"translation":[-7.857956,3.8146973E-06,0]},{"name":"characters/models/shared/arms/glove_cloth_collision/glove_cloth_collision.vmdl_c.helper_geo","mesh":0,"skin":0}],"samplers":[{"magFilter":9729,"minFilter":9987}],"scenes":[{"name":"glove_cloth_collision.vmdl_c","nodes":[0,53]}],"skins":[{"inverseBindMatrices":7,"joints":[1,27,2,28,3,29,4,8,12,16,30,34,38,42,5,9,13,20,17,31,35,39,46,43,6,10,14,21,18,32,36,40,47,44,7,11,15,22,19,23,24,25,26,33,37,41,48,45,49,50,51,52]}]}