{"asset":{"copyright":"","generator":"Source 2 Viewer 15.0.0.0 - https://valveresourceformat.github.io","version":"2.0"},"accessors":[{"bufferView":0,"componentType":5126,"count":78,"max":[26.23404312133789,0.75,4.982215404510498],"min":[-11.904275894165039,-0.7500000596046448,-6.534890174865723],"type":"VEC3"},{"bufferView":1,"componentType":5126,"count":78,"max":[0.7056053280830383,1,0.7438439130783081],"min":[-0.7871976494789124,-1,-0.7359283566474915],"type":"VEC3"},{"bufferView":2,"componentType":5126,"count":78,"max":[0.5246808528900146,0.08579075336456299],"min":[-0.23808550834655762,-0.11707718670368195],"type":"VEC2"},{"bufferView":3,"componentType":5125,"count":78,"type":"SCALAR"}],"bufferViews":[{"buffer":0,"byteLength":936,"target":34962},{"buffer":0,"byteLength":936,"byteOffset":936,"target":34962},{"buffer":0,"byteLength":624,"byteOffset":1872,"target":34962},{"buffer":0,"byteLength":312,"byteOffset":2496,"target":34963}],"buffers":[{"byteLength":2808,"uri":"weapon_rif_ak47_physics.bin"}],"images":[{"name":"physics_WeaponRifle","uri":"physics_WeaponRifle.png"}],"materials":[{"name":"physics_group_WeaponRifle_material","pbrMetallicRoughness":{"baseColorFactor":[0.5,0.5,1,1],"baseColorTexture":{"index":0},"metallicFactor":0}}],"meshes":[{"name":"physics_group_WeaponRifle","primitives":[{"attributes":{"POSITION":0,"NORMAL":1,"TEXCOORD_0":2},"indices":3,"material":0}]}],"nodes":[{"extras":{"SurfaceProperty":"WeaponRifle","InteractAs":[]},"name":"physics_group_WeaponRifle","matrix":[3.027916E-09,0,0.025399996,0,0.025399996,3.027916E-09,0,0,0,0.025399996,3.027916E-09,0,0,0,0,1],"mesh":0}],"samplers":[{"magFilter":9729,"minFilter":9987}],"scenes":[{"name":"weapon_rif_ak47.vmdl_c","nodes":[0]}],"textures":[{"name":"physics_WeaponRifle","sampler":0,"source":0}]}