{"asset":{"copyright":"","generator":"Source 2 Viewer 15.0.0.0 - https://valveresourceformat.github.io","version":"2.0"},"accessors":[{"bufferView":0,"componentType":5126,"count":132,"max":[4.007396697998047,0.5699637532234192,4.038335800170898],"min":[-2.4850008487701416,-0.544073760509491,-4.913263320922852],"type":"VEC3"},{"bufferView":1,"componentType":5126,"count":132,"max":[0.8605466485023499,0.9996029138565063,0.9893755316734314],"min":[-0.9403636455535889,-0.9996224045753479,-0.5569159984588623],"type":"VEC3"},{"bufferView":2,"componentType":5126,"count":132,"max":[0.0807667151093483,0.07936594635248184],"min":[-0.09826526790857315,-0.09414998441934586],"type":"VEC2"},{"bufferView":3,"componentType":5125,"count":132,"type":"SCALAR"}],"bufferViews":[{"buffer":0,"byteLength":1584,"target":34962},{"buffer":0,"byteLength":1584,"byteOffset":1584,"target":34962},{"buffer":0,"byteLength":1056,"byteOffset":3168,"target":34962},{"buffer":0,"byteLength":528,"byteOffset":4224,"target":34963}],"buffers":[{"byteLength":4752,"uri":"weapon_rif_ak47_mag_physics.bin"}],"images":[{"name":"physics_WeaponMagazine","uri":"physics_WeaponMagazine.png"}],"materials":[{"name":"physics_group_WeaponMagazine_material","pbrMetallicRoughness":{"baseColorFactor":[0.5,0.5,1,1],"baseColorTexture":{"index":0},"metallicFactor":0}}],"meshes":[{"name":"physics_group_WeaponMagazine","primitives":[{"attributes":{"POSITION":0,"NORMAL":1,"TEXCOORD_0":2},"indices":3,"material":0}]}],"nodes":[{"extras":{"SurfaceProperty":"WeaponMagazine","InteractAs":[]},"name":"physics_group_WeaponMagazine","matrix":[3.027916E-09,0,0.025399996,0,0.025399996,3.027916E-09,0,0,0,0.025399996,3.027916E-09,0,0,0,0,1],"mesh":0}],"samplers":[{"magFilter":9729,"minFilter":9987}],"scenes":[{"name":"weapon_rif_ak47_mag.vmdl_c","nodes":[0]}],"textures":[{"name":"physics_WeaponMagazine","sampler":0,"source":0}]}