{"asset":{"copyright":"","generator":"Source 2 Viewer 15.0.0.0 - https://valveresourceformat.github.io","version":"2.0"},"accessors":[{"bufferView":0,"componentType":5126,"count":4686,"max":[3.974583387374878,0.5391427874565125,3.961259126663208],"min":[-2.4204227924346924,-0.5173773169517517,-4.424386978149414],"type":"VEC3"},{"bufferView":1,"componentType":5126,"count":4686,"max":[0.9969786405563354,0.9972838759422302],"min":[0.002685628831386566,0.007385479286313057],"type":"VEC2"},{"bufferView":2,"componentType":5126,"count":4686,"max":[0.9987523555755615,1,1],"min":[-0.9998700022697449,-1,-0.9998700022697449],"type":"VEC3"},{"bufferView":3,"componentType":5126,"count":4686,"type":"VEC4"},{"bufferView":4,"componentType":5123,"count":4686,"type":"VEC4"},{"bufferView":5,"componentType":5126,"count":4686,"type":"VEC4"},{"bufferView":6,"componentType":5125,"count":21669,"type":"SCALAR"},{"name":"Bind Matrices","bufferView":7,"componentType":5126,"count":1,"type":"MAT4"}],"bufferViews":[{"buffer":0,"byteLength":56232,"byteOffset":236628,"target":34962},{"buffer":0,"byteLength":37488,"byteOffset":349092,"target":34962},{"buffer":0,"byteLength":56232,"byteOffset":292860,"target":34962},{"buffer":0,"byteLength":74976,"byteOffset":86676,"target":34962},{"buffer":0,"byteLength":37488,"byteOffset":386580,"byteStride":8,"target":34962},{"buffer":0,"byteLength":74976,"byteOffset":161652,"target":34962},{"buffer":0,"byteLength":86676,"target":34963},{"buffer":0,"byteLength":64,"byteOffset":424068}],"buffers":[{"byteLength":424132,"uri":"weapon_rif_ak47_mag.bin"}],"images":[{"name":"ak47_default_color_psd_5b66a23b.vtex","uri":"ak47_default_color_psd_5b66a23b.png"},{"name":"ak47_default_normal_png_c8c5793e.vtex","uri":"ak47_default_normal_png_c8c5793e.png"},{"name":"ak47_default_ao_png_b00f6e2e_orm_1322888879.png","uri":"ak47_default_ao_png_b00f6e2e_orm_1322888879.png"}],"materials":[{"extras":{"vmat":{"Name":"weapons/models/ak47/materials/weapon_rif_ak47.vmat","ShaderName":"csgo_weapon.vfx","IntParams":{"F_STICKERS":1,"g_bEnableSticker0":0,"g_bEnableSticker1":0,"g_bEnableSticker2":0,"g_bEnableSticker3":0,"g_bEnableSticker4":0,"g_bFogEnabled":1,"g_nScaleTexCoordUByModelScaleAxis":0,"g_nScaleTexCoordVByModelScaleAxis":0,"g_nTextureAddressModeU":0,"g_nTextureAddressModeV":0},"FloatParams":{"g_flMetalnessTransitionBias":2,"g_flModelTintAmount":1,"g_flSticker0Rotation":0,"g_flSticker0Wear":0,"g_flSticker1Rotation":0,"g_flSticker1Wear":0,"g_flSticker2Rotation":0,"g_flSticker2Wear":0,"g_flSticker3Rotation":0,"g_flSticker3Wear":0,"g_flSticker4Rotation":0,"g_flSticker4Wear":0,"g_flTexCoordRotation":0},"VectorParams":{"g_vColorTint":[1,1,1,0],"g_vMetalnessRemapRange":[0,1,0,0],"g_vSticker0Offset":[0.148,-0.434,0,0],"g_vSticker0Scale":[14.1,14.1,0,0],"g_vSticker1Offset":[0.061,-0.434,0,0],"g_vSticker1Scale":[14.1,14.1,0,0],"g_vSticker2Offset":[-0.025,-0.435,0,0],"g_vSticker2Scale":[14.6,14.6,0,0],"g_vSticker3Offset":[-0.164,-0.444,0,0],"g_vSticker3Scale":[14.7,14.7,0,0],"g_vSticker4Offset":[0,0,0,0],"g_vSticker4Scale":[0,0,0,0],"g_vTexCoordCenter":[0.5,0.5,0,0],"g_vTexCoordOffset":[0,0,0,0],"g_vTexCoordScale":[1,1,0,0],"g_vTexCoordScrollSpeed":[0,0,0,0],"g_vWearBiasSticker0":[1,1,0,0],"g_vWearBiasSticker1":[1,1,0,0],"g_vWearBiasSticker2":[1,1,0,0],"g_vWearBiasSticker3":[1,1,0,0],"g_vWearBiasSticker4":[1,1,0,0]},"TextureParams":{"g_tAmbientOcclusion":"weapons/models/ak47/materials/ak47_default_ao_png_b00f6e2e.vtex","g_tColor":"weapons/models/ak47/materials/ak47_default_color_psd_5b66a23b.vtex","g_tGlitterNormalSticker0":"materials/default/stickers/squares_glitter_normal_tga_25145674.vtex","g_tGlitterNormalSticker1":"materials/default/stickers/squares_glitter_normal_tga_25145674.vtex","g_tGlitterNormalSticker2":"materials/default/stickers/squares_glitter_normal_tga_25145674.vtex","g_tGlitterNormalSticker3":"materials/default/stickers/squares_glitter_normal_tga_25145674.vtex","g_tGlitterNormalSticker4":"materials/default/stickers/squares_glitter_normal_tga_25145674.vtex","g_tHoloSpectrumSticker0":"materials/default/stickers/default_holospectrum_tga_e12c79bd.vtex","g_tHoloSpectrumSticker1":"materials/default/stickers/default_holospectrum_tga_e12c79bd.vtex","g_tHoloSpectrumSticker2":"materials/default/stickers/default_holospectrum_tga_e12c79bd.vtex","g_tHoloSpectrumSticker3":"materials/default/stickers/default_holospectrum_tga_e12c79bd.vtex","g_tHoloSpectrumSticker4":"materials/default/stickers/default_holospectrum_tga_e12c79bd.vtex","g_tMetalness":"weapons/models/ak47/materials/ak47_default_rough_psd_469dc584.vtex","g_tNormal":"weapons/models/ak47/materials/ak47_default_normal_png_c8c5793e.vtex","g_tNormalRoughnessSticker0":"materials/default/default_normal_tga_4c6e7391.vtex","g_tNormalRoughnessSticker1":"materials/default/default_normal_tga_4c6e7391.vtex","g_tNormalRoughnessSticker2":"materials/default/default_normal_tga_4c6e7391.vtex","g_tNormalRoughnessSticker3":"materials/default/default_normal_tga_4c6e7391.vtex","g_tNormalRoughnessSticker4":"materials/default/default_normal_tga_4c6e7391.vtex","g_tSfxMaskSticker0":"materials/default/stickers/default_holomask_tga_daef1ed1.vtex","g_tSfxMaskSticker1":"materials/default/stickers/default_holomask_tga_daef1ed1.vtex","g_tSfxMaskSticker2":"materials/default/stickers/default_holomask_tga_daef1ed1.vtex","g_tSfxMaskSticker3":"materials/default/stickers/default_holomask_tga_daef1ed1.vtex","g_tSfxMaskSticker4":"materials/default/stickers/default_holomask_tga_daef1ed1.vtex","g_tSticker0":"materials/default/stickers/sticker_default_psd_7f7731d3.vtex","g_tSticker1":"materials/default/stickers/sticker_default_psd_7f7731d3.vtex","g_tSticker2":"materials/default/stickers/sticker_default_psd_7f7731d3.vtex","g_tSticker3":"materials/default/stickers/sticker_default_psd_7f7731d3.vtex","g_tSticker4":"materials/default/stickers/sticker_default_psd_7f7731d3.vtex","g_tStickerScratches":"materials/default/stickers/sticker_default_scratches_psd_a9ad199b.vtex","g_tStickerWepInputs":"weapons/models/ak47/materials/stickers/weapon_rif_ak47_sticker_mask_hd_tga_8e7a83c3.vtex"}}},"name":"weapon_rif_ak47","normalTexture":{"index":1},"occlusionTexture":{"index":2},"pbrMetallicRoughness":{"baseColorTexture":{"index":0},"metallicRoughnessTexture":{"index":2}}}],"meshes":[{"extras":{},"name":"weapons/models/ak47/weapon_rif_ak47_mag.vmdl_c.mag","primitives":[{"attributes":{"POSITION":0,"TEXCOORD_0":1,"NORMAL":2,"TANGENT":3,"JOINTS_0":4,"WEIGHTS_0":5},"indices":6,"material":0}]}],"nodes":[{"name":"weapons/models/ak47/weapon_rif_ak47_mag.vmdl_c","children":[1],"matrix":[3.027916E-09,0,0.025399996,0,0.025399996,3.027916E-09,0,0,0,0.025399996,3.027916E-09,0,0,0,0,1]},{"name":"mag","rotation":[0.5,0.49999994,0.50000006,0.5],"translation":[-4.7683696E-07,4.76837E-07,-1.907348E-06]},{"name":"weapons/models/ak47/weapon_rif_ak47_mag.vmdl_c.mag","mesh":0,"skin":0}],"samplers":[{"magFilter":9729,"minFilter":9987}],"scenes":[{"name":"weapon_rif_ak47_mag.vmdl_c","nodes":[0,2]}],"skins":[{"inverseBindMatrices":7,"joints":[1]}],"textures":[{"name":"ak47_default_color_psd_5b66a23b.vtex","sampler":0,"source":0},{"name":"ak47_default_normal_png_c8c5793e.vtex","sampler":0,"source":1},{"name":"ak47_default_ao_png_b00f6e2e_orm_1322888879.png","sampler":0,"source":2}]}