{"asset":{"copyright":"","generator":"Source 2 Viewer 15.0.0.0 - https://valveresourceformat.github.io","version":"2.0"},"accessors":[{"bufferView":0,"componentType":5126,"count":120,"max":[1.632665991783142,0.7546610236167908,11.096229553222656],"min":[-2.6167149543762207,-0.8653480410575867,-4.919040203094482],"type":"VEC3"},{"bufferView":1,"componentType":5126,"count":120,"max":[0.7045443654060364,0.9999244213104248,0.5773507952690125],"min":[-0.700133204460144,-0.9996916651725769,-0.6092408299446106],"type":"VEC3"},{"bufferView":2,"componentType":5126,"count":120,"max":[0.2219245880842209,0.21192458271980286],"min":[-0.05233429744839668,-0.09838080406188965],"type":"VEC2"},{"bufferView":3,"componentType":5125,"count":120,"type":"SCALAR"}],"bufferViews":[{"buffer":0,"byteLength":1440,"target":34962},{"buffer":0,"byteLength":1440,"byteOffset":1440,"target":34962},{"buffer":0,"byteLength":960,"byteOffset":2880,"target":34962},{"buffer":0,"byteLength":480,"byteOffset":3840,"target":34963}],"buffers":[{"byteLength":4320,"uri":"weapon_knife_m9_physics.bin"}],"images":[{"name":"physics_weaponknife","uri":"physics_weaponknife.png"}],"materials":[{"name":"physics_group_weaponknife_material","pbrMetallicRoughness":{"baseColorFactor":[0.5,0.5,1,1],"baseColorTexture":{"index":0},"metallicFactor":0}}],"meshes":[{"name":"physics_group_weaponknife","primitives":[{"attributes":{"POSITION":0,"NORMAL":1,"TEXCOORD_0":2},"indices":3,"material":0}]}],"nodes":[{"extras":{"SurfaceProperty":"weaponknife","InteractAs":[]},"name":"physics_group_weaponknife","matrix":[3.027916E-09,0,0.025399996,0,0.025399996,3.027916E-09,0,0,0,0.025399996,3.027916E-09,0,0,0,0,1],"mesh":0}],"samplers":[{"magFilter":9729,"minFilter":9987}],"scenes":[{"name":"weapon_knife_m9.vmdl_c","nodes":[0]}],"textures":[{"name":"physics_weaponknife","sampler":0,"source":0}]}