{"asset":{"copyright":"","generator":"Source 2 Viewer 15.0.0.0 - https://valveresourceformat.github.io","version":"2.0"},"accessors":[{"bufferView":0,"componentType":5126,"count":2901,"max":[2.025804281234741,0.46395450830459595,5.192303657531738],"min":[-0.8174535632133484,-0.5167834162712097,-0.4150967597961426],"type":"VEC3"},{"bufferView":1,"componentType":5126,"count":2901,"max":[0.9975585341453552,0.9975585341453552],"min":[0.061403241008520126,0.21189001202583313],"type":"VEC2"},{"bufferView":2,"componentType":5126,"count":2901,"max":[0.9998730421066284,0.9999995231628418,0.9999990463256836],"min":[-0.9999995231628418,-0.9999995231628418,-1],"type":"VEC3"},{"bufferView":3,"componentType":5126,"count":2901,"type":"VEC4"},{"bufferView":4,"componentType":5123,"count":2901,"type":"VEC4"},{"bufferView":5,"componentType":5126,"count":2901,"type":"VEC4"},{"bufferView":6,"componentType":5125,"count":12846,"type":"SCALAR"},{"name":"Bind Matrices","bufferView":7,"componentType":5126,"count":1,"type":"MAT4"}],"bufferViews":[{"buffer":0,"byteLength":34812,"byteOffset":144216,"target":34962},{"buffer":0,"byteLength":23208,"byteOffset":213840,"target":34962},{"buffer":0,"byteLength":34812,"byteOffset":179028,"target":34962},{"buffer":0,"byteLength":46416,"byteOffset":51384,"target":34962},{"buffer":0,"byteLength":23208,"byteOffset":237048,"byteStride":8,"target":34962},{"buffer":0,"byteLength":46416,"byteOffset":97800,"target":34962},{"buffer":0,"byteLength":51384,"target":34963},{"buffer":0,"byteLength":64,"byteOffset":260256}],"buffers":[{"byteLength":260320,"uri":"weapon_pist_deagle_mag.bin"}],"images":[{"name":"deagle_default_color_psd_51a7b347.vtex","uri":"deagle_default_color_psd_51a7b347.png"},{"name":"deagle_default_normal_tga_f25ac800.vtex","uri":"deagle_default_normal_tga_f25ac800.png"},{"name":"deagle_default_ao_tga_b7d74bd_orm_2812326540.png","uri":"deagle_default_ao_tga_b7d74bd_orm_2812326540.png"}],"materials":[{"extras":{"vmat":{"Name":"weapons/models/deagle/materials/weapon_pist_deagle.vmat","ShaderName":"csgo_weapon.vfx","IntParams":{"F_STICKERS":1,"g_bEnableSticker0":0,"g_bEnableSticker1":0,"g_bEnableSticker2":0,"g_bEnableSticker3":0,"g_bEnableSticker4":0,"g_bFogEnabled":1,"g_nScaleTexCoordUByModelScaleAxis":0,"g_nScaleTexCoordVByModelScaleAxis":0,"g_nTextureAddressModeU":0,"g_nTextureAddressModeV":0},"FloatParams":{"g_flMetalnessTransitionBias":2,"g_flModelTintAmount":1,"g_flSticker0Rotation":0.029,"g_flSticker0Wear":0,"g_flSticker1Rotation":0,"g_flSticker1Wear":0,"g_flSticker2Rotation":0,"g_flSticker2Wear":0,"g_flSticker3Rotation":0,"g_flSticker3Wear":0,"g_flSticker4Rotation":0,"g_flSticker4Wear":0,"g_flTexCoordRotation":0,"g_fWearScratchesSticker0":1,"g_fWearScratchesSticker1":1,"g_fWearScratchesSticker2":1,"g_fWearScratchesSticker3":1,"g_fWearScratchesSticker4":1},"VectorParams":{"g_vColorTint":[1,1,1,0],"g_vMetalnessRemapRange":[0,1,0,0],"g_vSticker0Offset":[0.267,-0.116,0,0],"g_vSticker0Scale":[4.63,4.63,0,0],"g_vSticker1Offset":[0.157,-0.37,0,0],"g_vSticker1Scale":[5.435,5.435,0,0],"g_vSticker2Offset":[-0.023,-0.369,0,0],"g_vSticker2Scale":[5.435,5.435,0,0],"g_vSticker3Offset":[-0.288,-0.376,0,0],"g_vSticker3Scale":[5.435,5.435,0,0],"g_vSticker4Offset":[0,0,0,0],"g_vSticker4Scale":[0,0,0,0],"g_vTexCoordCenter":[0.5,0.5,0,0],"g_vTexCoordOffset":[0,0,0,0],"g_vTexCoordScale":[1,1,0,0],"g_vTexCoordScrollSpeed":[0,0,0,0],"g_vWearBiasSticker0":[1,1,0,0],"g_vWearBiasSticker1":[1,1,0,0],"g_vWearBiasSticker2":[1,1,0,0],"g_vWearBiasSticker3":[1,1,0,0],"g_vWearBiasSticker4":[1,1,0,0]},"TextureParams":{"g_tAmbientOcclusion":"weapons/models/deagle/materials/deagle_default_ao_tga_b7d74bd.vtex","g_tColor":"weapons/models/deagle/materials/deagle_default_color_psd_51a7b347.vtex","g_tGlitterNormalSticker0":"materials/default/stickers/squares_glitter_normal_tga_25145674.vtex","g_tGlitterNormalSticker1":"materials/default/stickers/squares_glitter_normal_tga_25145674.vtex","g_tGlitterNormalSticker2":"materials/default/stickers/squares_glitter_normal_tga_25145674.vtex","g_tGlitterNormalSticker3":"materials/default/stickers/squares_glitter_normal_tga_25145674.vtex","g_tGlitterNormalSticker4":"materials/default/stickers/squares_glitter_normal_tga_25145674.vtex","g_tHoloSpectrumSticker0":"materials/default/stickers/default_holospectrum_tga_e12c79bd.vtex","g_tHoloSpectrumSticker1":"materials/default/stickers/default_holospectrum_tga_e12c79bd.vtex","g_tHoloSpectrumSticker2":"materials/default/stickers/default_holospectrum_tga_e12c79bd.vtex","g_tHoloSpectrumSticker3":"materials/default/stickers/default_holospectrum_tga_e12c79bd.vtex","g_tHoloSpectrumSticker4":"materials/default/stickers/default_holospectrum_tga_e12c79bd.vtex","g_tMetalness":"weapons/models/deagle/materials/deagle_default_rough_tga_b238a11a.vtex","g_tNormal":"weapons/models/deagle/materials/deagle_default_normal_tga_f25ac800.vtex","g_tNormalRoughnessSticker0":"materials/default/default_normal_tga_4c6e7391.vtex","g_tNormalRoughnessSticker1":"materials/default/default_normal_tga_4c6e7391.vtex","g_tNormalRoughnessSticker2":"materials/default/default_normal_tga_4c6e7391.vtex","g_tNormalRoughnessSticker3":"materials/default/default_normal_tga_4c6e7391.vtex","g_tNormalRoughnessSticker4":"materials/default/default_normal_tga_4c6e7391.vtex","g_tSfxMaskSticker0":"materials/default/stickers/default_holomask_tga_daef1ed1.vtex","g_tSfxMaskSticker1":"materials/default/stickers/default_holomask_tga_daef1ed1.vtex","g_tSfxMaskSticker2":"materials/default/stickers/default_holomask_tga_daef1ed1.vtex","g_tSfxMaskSticker3":"materials/default/stickers/default_holomask_tga_daef1ed1.vtex","g_tSfxMaskSticker4":"materials/default/stickers/default_holomask_tga_daef1ed1.vtex","g_tSticker0":"materials/default/stickers/sticker_default_psd_7f7731d3.vtex","g_tSticker1":"materials/default/stickers/sticker_default_psd_7f7731d3.vtex","g_tSticker2":"materials/default/stickers/sticker_default_psd_7f7731d3.vtex","g_tSticker3":"materials/default/stickers/sticker_default_psd_7f7731d3.vtex","g_tSticker4":"materials/default/stickers/sticker_default_psd_7f7731d3.vtex","g_tStickerScratches":"materials/default/stickers/sticker_default_scratches_psd_a9ad199b.vtex","g_tStickerWepInputs":"weapons/models/deagle/materials/stickers/weapon_pist_deagle_sticker_mask_hd_tga_cb718653.vtex"}}},"name":"weapon_pist_deagle","normalTexture":{"index":1},"occlusionTexture":{"index":2},"pbrMetallicRoughness":{"baseColorTexture":{"index":0},"metallicRoughnessTexture":{"index":2}}}],"meshes":[{"extras":{},"name":"weapons/models/deagle/weapon_pist_deagle_mag.vmdl_c.mag","primitives":[{"attributes":{"POSITION":0,"TEXCOORD_0":1,"NORMAL":2,"TANGENT":3,"JOINTS_0":4,"WEIGHTS_0":5},"indices":6,"material":0}]}],"nodes":[{"name":"weapons/models/deagle/weapon_pist_deagle_mag.vmdl_c","children":[1],"matrix":[3.027916E-09,0,0.025399996,0,0.025399996,3.027916E-09,0,0,0,0.025399996,3.027916E-09,0,0,0,0,1]},{"name":"v_weapon_deagle_clip","rotation":[0.50000006,0.49999994,0.5,0.5],"translation":[9.536739E-07,-7.152554E-07,9.536739E-07]},{"name":"weapons/models/deagle/weapon_pist_deagle_mag.vmdl_c.mag","mesh":0,"skin":0}],"samplers":[{"magFilter":9729,"minFilter":9987}],"scenes":[{"name":"weapon_pist_deagle_mag.vmdl_c","nodes":[0,2]}],"skins":[{"inverseBindMatrices":7,"joints":[1]}],"textures":[{"name":"deagle_default_color_psd_51a7b347.vtex","sampler":0,"source":0},{"name":"deagle_default_normal_tga_f25ac800.vtex","sampler":0,"source":1},{"name":"deagle_default_ao_tga_b7d74bd_orm_2812326540.png","sampler":0,"source":2}]}