{"asset":{"copyright":"","generator":"Source 2 Viewer 15.0.0.0 - https://valveresourceformat.github.io","version":"2.0"},"accessors":[{"bufferView":0,"componentType":5126,"count":120,"max":[2.0286052227020264,0.47523394227027893,5.214978218078613],"min":[-0.8435232639312744,-0.5283348560333252,-0.44499921798706055],"type":"VEC3"},{"bufferView":1,"componentType":5126,"count":120,"max":[0.9865691661834717,0.9997068047523499,0.974720299243927],"min":[-0.9855292439460754,-0.9997068643569946,-0.9993992447853088],"type":"VEC3"},{"bufferView":2,"componentType":5126,"count":120,"max":[0.10375022888183594,0.1011783555150032],"min":[-0.016870465129613876,-0.009504678659141064],"type":"VEC2"},{"bufferView":3,"componentType":5125,"count":120,"type":"SCALAR"}],"bufferViews":[{"buffer":0,"byteLength":1440,"target":34962},{"buffer":0,"byteLength":1440,"byteOffset":1440,"target":34962},{"buffer":0,"byteLength":960,"byteOffset":2880,"target":34962},{"buffer":0,"byteLength":480,"byteOffset":3840,"target":34963}],"buffers":[{"byteLength":4320,"uri":"weapon_pist_deagle_mag_physics.bin"}],"images":[{"name":"physics_weaponmagazine","uri":"physics_weaponmagazine.png"}],"materials":[{"name":"physics_group_weaponmagazine_material","pbrMetallicRoughness":{"baseColorFactor":[0.5,0.5,1,1],"baseColorTexture":{"index":0},"metallicFactor":0}}],"meshes":[{"name":"physics_group_weaponmagazine","primitives":[{"attributes":{"POSITION":0,"NORMAL":1,"TEXCOORD_0":2},"indices":3,"material":0}]}],"nodes":[{"extras":{"SurfaceProperty":"weaponmagazine","InteractAs":[]},"name":"physics_group_weaponmagazine","matrix":[3.027916E-09,0,0.025399996,0,0.025399996,3.027916E-09,0,0,0,0.025399996,3.027916E-09,0,0,0,0,1],"mesh":0}],"samplers":[{"magFilter":9729,"minFilter":9987}],"scenes":[{"name":"weapon_pist_deagle_mag.vmdl_c","nodes":[0]}],"textures":[{"name":"physics_weaponmagazine","sampler":0,"source":0}]}