{"asset":{"copyright":"","generator":"Source 2 Viewer 15.0.0.0 - https://valveresourceformat.github.io","version":"2.0"},"accessors":[{"bufferView":0,"componentType":5126,"count":114,"max":[9.062031745910645,0.7500002980232239,4.739110946655273],"min":[-2.542107105255127,-0.7500000596046448,-1.980239748954773],"type":"VEC3"},{"bufferView":1,"componentType":5126,"count":114,"max":[0.8048700094223022,1,0.7526759505271912],"min":[-0.7338431477546692,-1,-0.8003741502761841],"type":"VEC3"},{"bufferView":2,"componentType":5126,"count":114,"max":[0.18124063313007355,0.09403488039970398],"min":[-0.0396047942340374,-0.03948671370744705],"type":"VEC2"},{"bufferView":3,"componentType":5125,"count":114,"type":"SCALAR"}],"bufferViews":[{"buffer":0,"byteLength":1368,"target":34962},{"buffer":0,"byteLength":1368,"byteOffset":1368,"target":34962},{"buffer":0,"byteLength":912,"byteOffset":2736,"target":34962},{"buffer":0,"byteLength":456,"byteOffset":3648,"target":34963}],"buffers":[{"byteLength":4104,"uri":"weapon_pist_deagle_physics.bin"}],"images":[{"name":"physics_weaponpistol","uri":"physics_weaponpistol.png"}],"materials":[{"name":"physics_group_weaponpistol_material","pbrMetallicRoughness":{"baseColorFactor":[0.5,0.5,1,1],"baseColorTexture":{"index":0},"metallicFactor":0}}],"meshes":[{"name":"physics_group_weaponpistol","primitives":[{"attributes":{"POSITION":0,"NORMAL":1,"TEXCOORD_0":2},"indices":3,"material":0}]}],"nodes":[{"extras":{"SurfaceProperty":"weaponpistol","InteractAs":[]},"name":"physics_group_weaponpistol","matrix":[3.027916E-09,0,0.025399996,0,0.025399996,3.027916E-09,0,0,0,0.025399996,3.027916E-09,0,0,0,0,1],"mesh":0}],"samplers":[{"magFilter":9729,"minFilter":9987}],"scenes":[{"name":"weapon_pist_deagle.vmdl_c","nodes":[0]}],"textures":[{"name":"physics_weaponpistol","sampler":0,"source":0}]}